{
	"asset":{
		"generator":"Khronos glTF Blender I/O v4.0.44",
		"version":"2.0"
	},
	"scene":0,
	"scenes":[
		{
			"name":"Scene",
			"nodes":[
				0
			]
		}
	],
	"nodes":[
		{
			"mesh":0,
			"name":"Curve",
			"translation":[
				0.35652121901512146,
				0,
				-0.1455039083957672
			]
		}
	],
	"materials":[
		{
			"doubleSided":true,
			"name":"SVGMat.036",
			"pbrMetallicRoughness":{
				"baseColorFactor":[
					0.04666508734226227,
					0.7083757519721985,
					0.2345505803823471,
					1
				],
				"metallicFactor":0,
				"roughnessFactor":0.4000000059604645
			}
		}
	],
	"meshes":[
		{
			"name":"Curve.033",
			"primitives":[
				{
					"attributes":{
						"POSITION":0,
						"NORMAL":1,
						"TEXCOORD_0":2
					},
					"indices":3,
					"material":0
				}
			]
		}
	],
	"accessors":[
		{
			"bufferView":0,
			"componentType":5126,
			"count":1171,
			"max":[
				0.19446346163749695,
				0.009999999776482582,
				0.1455039083957672
			],
			"min":[
				-0.20193590223789215,
				-0.009999999776482582,
				-0.07778461277484894
			],
			"type":"VEC3"
		},
		{
			"bufferView":1,
			"componentType":5126,
			"count":1171,
			"type":"VEC3"
		},
		{
			"bufferView":2,
			"componentType":5126,
			"count":1171,
			"type":"VEC2"
		},
		{
			"bufferView":3,
			"componentType":5123,
			"count":3480,
			"type":"SCALAR"
		}
	],
	"bufferViews":[
		{
			"buffer":0,
			"byteLength":14052,
			"byteOffset":0,
			"target":34962
		},
		{
			"buffer":0,
			"byteLength":14052,
			"byteOffset":14052,
			"target":34962
		},
		{
			"buffer":0,
			"byteLength":9368,
			"byteOffset":28104,
			"target":34962
		},
		{
			"buffer":0,
			"byteLength":6960,
			"byteOffset":37472,
			"target":34963
		}
	],
	"buffers":[
		{
			"byteLength":44432,
			"uri":"android.bin"
		}
	]
}
