{
	"asset":{
		"generator":"Khronos glTF Blender I/O v4.0.44",
		"version":"2.0"
	},
	"scene":0,
	"scenes":[
		{
			"name":"Scene",
			"nodes":[
				0
			]
		}
	],
	"nodes":[
		{
			"mesh":0,
			"name":"Curve",
			"scale":[
				0.6219179630279541,
				1.2438359260559082,
				0.6219179630279541
			],
			"translation":[
				-0.0013873508432880044,
				-0.0002783969684969634,
				-0.04247638210654259
			]
		}
	],
	"materials":[
		{
			"doubleSided":true,
			"name":"SVGMat.036",
			"pbrMetallicRoughness":{
				"baseColorFactor":[
					0.04666508734226227,
					0.7083757519721985,
					0.2345505803823471,
					1
				],
				"metallicFactor":0,
				"roughnessFactor":0.4000000059604645
			}
		}
	],
	"meshes":[
		{
			"name":"Curve.033",
			"primitives":[
				{
					"attributes":{
						"POSITION":0,
						"NORMAL":1,
						"TEXCOORD_0":2
					},
					"indices":3,
					"material":0
				}
			]
		}
	],
	"accessors":[
		{
			"bufferView":0,
			"componentType":5126,
			"count":1172,
			"max":[
				0.20281705260276794,
				0.009991459548473358,
				0.1419001668691635
			],
			"min":[
				-0.19358231127262115,
				-0.010008540004491806,
				-0.08138835430145264
			],
			"type":"VEC3"
		},
		{
			"bufferView":1,
			"componentType":5126,
			"count":1172,
			"type":"VEC3"
		},
		{
			"bufferView":2,
			"componentType":5126,
			"count":1172,
			"type":"VEC2"
		},
		{
			"bufferView":3,
			"componentType":5123,
			"count":3480,
			"type":"SCALAR"
		}
	],
	"bufferViews":[
		{
			"buffer":0,
			"byteLength":14064,
			"byteOffset":0,
			"target":34962
		},
		{
			"buffer":0,
			"byteLength":14064,
			"byteOffset":14064,
			"target":34962
		},
		{
			"buffer":0,
			"byteLength":9376,
			"byteOffset":28128,
			"target":34962
		},
		{
			"buffer":0,
			"byteLength":6960,
			"byteOffset":37504,
			"target":34963
		}
	],
	"buffers":[
		{
			"byteLength":44464,
			"uri":"android.bin"
		}
	]
}
