{
	"asset":{
		"generator":"Khronos glTF Blender I/O v4.0.44",
		"version":"2.0"
	},
	"scene":0,
	"scenes":[
		{
			"name":"Scene",
			"nodes":[
				0,
				1,
				2
			]
		}
	],
	"nodes":[
		{
			"mesh":0,
			"name":"Curve",
			"translation":[
				0.30792468786239624,
				0,
				-0.30887097120285034
			]
		},
		{
			"mesh":1,
			"name":"Curve.001",
			"translation":[
				0.42592400312423706,
				0.009999999776482582,
				-0.3656686544418335
			]
		},
		{
			"mesh":2,
			"name":"Curve.002",
			"translation":[
				0.28923505544662476,
				0.019999999552965164,
				-0.3513307571411133
			]
		}
	],
	"materials":[
		{
			"doubleSided":true,
			"name":"SVGMat.029",
			"pbrMetallicRoughness":{
				"baseColorFactor":[
					0.010960093699395657,
					0.17144110798835754,
					0.4910208582878113,
					1
				],
				"metallicFactor":0,
				"roughnessFactor":0.4000000059604645
			}
		},
		{
			"doubleSided":true,
			"name":"SVGMat.030",
			"pbrMetallicRoughness":{
				"baseColorFactor":[
					0.011612244881689548,
					0.2462013214826584,
					0.5711248517036438,
					1
				],
				"metallicFactor":0,
				"roughnessFactor":0.4000000059604645
			}
		},
		{
			"doubleSided":true,
			"name":"SVGMat.031",
			"pbrMetallicRoughness":{
				"baseColorFactor":[
					1,
					1,
					1,
					1
				],
				"metallicFactor":0,
				"roughnessFactor":0.4000000059604645
			}
		}
	],
	"meshes":[
		{
			"name":"Curve.027",
			"primitives":[
				{
					"attributes":{
						"POSITION":0,
						"NORMAL":1,
						"TEXCOORD_0":2
					},
					"indices":3,
					"material":0
				}
			]
		},
		{
			"name":"Curve.028",
			"primitives":[
				{
					"attributes":{
						"POSITION":4,
						"NORMAL":5,
						"TEXCOORD_0":6
					},
					"indices":7,
					"material":1
				}
			]
		},
		{
			"name":"Curve.029",
			"primitives":[
				{
					"attributes":{
						"POSITION":8,
						"NORMAL":9,
						"TEXCOORD_0":10
					},
					"indices":11,
					"material":2
				}
			]
		}
	],
	"accessors":[
		{
			"bufferView":0,
			"componentType":5126,
			"count":22,
			"max":[
				0.30817902088165283,
				0.009999999776482582,
				0.31005436182022095
			],
			"min":[
				-0.30792468786239624,
				-0.009999999776482582,
				-0.393000066280365
			],
			"type":"VEC3"
		},
		{
			"bufferView":1,
			"componentType":5126,
			"count":22,
			"type":"VEC3"
		},
		{
			"bufferView":2,
			"componentType":5126,
			"count":22,
			"type":"VEC2"
		},
		{
			"bufferView":3,
			"componentType":5123,
			"count":48,
			"type":"SCALAR"
		},
		{
			"bufferView":4,
			"componentType":5126,
			"count":18,
			"max":[
				0.13816863298416138,
				0.009999999776482582,
				0.30597496032714844
			],
			"min":[
				-0.11554685235023499,
				-0.009999999776482582,
				-0.2761697769165039
			],
			"type":"VEC3"
		},
		{
			"bufferView":5,
			"componentType":5126,
			"count":18,
			"type":"VEC3"
		},
		{
			"bufferView":6,
			"componentType":5126,
			"count":18,
			"type":"VEC2"
		},
		{
			"bufferView":7,
			"componentType":5123,
			"count":36,
			"type":"SCALAR"
		},
		{
			"bufferView":8,
			"componentType":5126,
			"count":74,
			"max":[
				0.2118510603904724,
				0.009999999776482582,
				0.2193446159362793
			],
			"min":[
				-0.1784456968307495,
				-0.009999999776482582,
				-0.2160990834236145
			],
			"type":"VEC3"
		},
		{
			"bufferView":9,
			"componentType":5126,
			"count":74,
			"type":"VEC3"
		},
		{
			"bufferView":10,
			"componentType":5126,
			"count":74,
			"type":"VEC2"
		},
		{
			"bufferView":11,
			"componentType":5123,
			"count":204,
			"type":"SCALAR"
		}
	],
	"bufferViews":[
		{
			"buffer":0,
			"byteLength":264,
			"byteOffset":0,
			"target":34962
		},
		{
			"buffer":0,
			"byteLength":264,
			"byteOffset":264,
			"target":34962
		},
		{
			"buffer":0,
			"byteLength":176,
			"byteOffset":528,
			"target":34962
		},
		{
			"buffer":0,
			"byteLength":96,
			"byteOffset":704,
			"target":34963
		},
		{
			"buffer":0,
			"byteLength":216,
			"byteOffset":800,
			"target":34962
		},
		{
			"buffer":0,
			"byteLength":216,
			"byteOffset":1016,
			"target":34962
		},
		{
			"buffer":0,
			"byteLength":144,
			"byteOffset":1232,
			"target":34962
		},
		{
			"buffer":0,
			"byteLength":72,
			"byteOffset":1376,
			"target":34963
		},
		{
			"buffer":0,
			"byteLength":888,
			"byteOffset":1448,
			"target":34962
		},
		{
			"buffer":0,
			"byteLength":888,
			"byteOffset":2336,
			"target":34962
		},
		{
			"buffer":0,
			"byteLength":592,
			"byteOffset":3224,
			"target":34962
		},
		{
			"buffer":0,
			"byteLength":408,
			"byteOffset":3816,
			"target":34963
		}
	],
	"buffers":[
		{
			"byteLength":4224,
			"uri":"css.bin"
		}
	]
}
