{
	"asset":{
		"generator":"Khronos glTF Blender I/O v4.0.44",
		"version":"2.0"
	},
	"scene":0,
	"scenes":[
		{
			"name":"Scene",
			"nodes":[
				0,
				1
			]
		}
	],
	"nodes":[
		{
			"mesh":0,
			"name":"Curve",
			"scale":[
				0.8977166414260864,
				0.8977166414260864,
				0.8977166414260864
			],
			"translation":[
				0.3745715916156769,
				0,
				-0.10922685265541077
			]
		},
		{
			"mesh":1,
			"name":"Curve.001",
			"scale":[
				0.8977166414260864,
				0.8977166414260864,
				0.8977166414260864
			],
			"translation":[
				0.223305806517601,
				0,
				-0.2015509158372879
			]
		}
	],
	"materials":[
		{
			"doubleSided":true,
			"name":"SVGMat.028",
			"pbrMetallicRoughness":{
				"baseColorFactor":[
					0,
					0.28314873576164246,
					0.7605245113372803,
					1
				],
				"metallicFactor":0,
				"roughnessFactor":0.4000000059604645
			}
		}
	],
	"meshes":[
		{
			"name":"Curve.025",
			"primitives":[
				{
					"attributes":{
						"POSITION":0,
						"NORMAL":1,
						"TEXCOORD_0":2
					},
					"indices":3,
					"material":0
				}
			]
		},
		{
			"name":"Curve.026",
			"primitives":[
				{
					"attributes":{
						"POSITION":4,
						"NORMAL":5,
						"TEXCOORD_0":6
					},
					"indices":7,
					"material":0
				}
			]
		}
	],
	"accessors":[
		{
			"bufferView":0,
			"componentType":5126,
			"count":1021,
			"max":[
				0.22268733382225037,
				0.009999999776482582,
				0.21462586522102356
			],
			"min":[
				-0.4171014428138733,
				-0.009999999776482582,
				-0.151228129863739
			],
			"type":"VEC3"
		},
		{
			"bufferView":1,
			"componentType":5126,
			"count":1021,
			"type":"VEC3"
		},
		{
			"bufferView":2,
			"componentType":5126,
			"count":1021,
			"type":"VEC2"
		},
		{
			"bufferView":3,
			"componentType":5123,
			"count":3024,
			"type":"SCALAR"
		},
		{
			"bufferView":4,
			"componentType":5126,
			"count":3078,
			"max":[
				0.1855432391166687,
				0.009999999776482582,
				0.06673233211040497
			],
			"min":[
				-0.19458553194999695,
				-0.009999999776482582,
				-0.13567380607128143
			],
			"type":"VEC3"
		},
		{
			"bufferView":5,
			"componentType":5126,
			"count":3078,
			"type":"VEC3"
		},
		{
			"bufferView":6,
			"componentType":5126,
			"count":3078,
			"type":"VEC2"
		},
		{
			"bufferView":7,
			"componentType":5123,
			"count":9072,
			"type":"SCALAR"
		}
	],
	"bufferViews":[
		{
			"buffer":0,
			"byteLength":12252,
			"byteOffset":0,
			"target":34962
		},
		{
			"buffer":0,
			"byteLength":12252,
			"byteOffset":12252,
			"target":34962
		},
		{
			"buffer":0,
			"byteLength":8168,
			"byteOffset":24504,
			"target":34962
		},
		{
			"buffer":0,
			"byteLength":6048,
			"byteOffset":32672,
			"target":34963
		},
		{
			"buffer":0,
			"byteLength":36936,
			"byteOffset":38720,
			"target":34962
		},
		{
			"buffer":0,
			"byteLength":36936,
			"byteOffset":75656,
			"target":34962
		},
		{
			"buffer":0,
			"byteLength":24624,
			"byteOffset":112592,
			"target":34962
		},
		{
			"buffer":0,
			"byteLength":18144,
			"byteOffset":137216,
			"target":34963
		}
	],
	"buffers":[
		{
			"byteLength":155360,
			"uri":"docker.bin"
		}
	]
}
