{
	"asset":{
		"generator":"Khronos glTF Blender I/O v4.0.44",
		"version":"2.0"
	},
	"scene":0,
	"scenes":[
		{
			"name":"Scene",
			"nodes":[
				0,
				1,
				2,
				3
			]
		}
	],
	"nodes":[
		{
			"mesh":0,
			"name":"Curve",
			"translation":[
				0.10321909934282303,
				0,
				-0.4552414119243622
			]
		},
		{
			"mesh":1,
			"name":"Curve.001",
			"scale":[
				1,
				0.5322482585906982,
				1
			],
			"translation":[
				0.25777509808540344,
				0,
				-0.504779577255249
			]
		},
		{
			"mesh":2,
			"name":"Curve.002",
			"translation":[
				0.12575511634349823,
				0,
				-0.29211193323135376
			]
		},
		{
			"mesh":3,
			"name":"Curve.003",
			"translation":[
				0.30708882212638855,
				0,
				-0.1996709257364273
			]
		}
	],
	"materials":[
		{
			"doubleSided":true,
			"name":"SVGMat.015",
			"pbrMetallicRoughness":{
				"baseColorFactor":[
					1,
					0.5394794940948486,
					0.06847816705703735,
					1
				],
				"metallicFactor":0,
				"roughnessFactor":0.4000000059604645
			}
		},
		{
			"doubleSided":true,
			"name":"SVGMat.016",
			"pbrMetallicRoughness":{
				"baseColorFactor":[
					0.9046611785888672,
					0.5088813304901123,
					0.12213877588510513,
					1
				],
				"metallicFactor":0,
				"roughnessFactor":0.4000000059604645
			}
		},
		{
			"doubleSided":true,
			"name":"SVGMat.017",
			"pbrMetallicRoughness":{
				"baseColorFactor":[
					0.9215818643569946,
					0.22322796285152435,
					0.0036765073891729116,
					1
				],
				"metallicFactor":0,
				"roughnessFactor":0.4000000059604645
			}
		},
		{
			"doubleSided":true,
			"name":"SVGMat.018",
			"pbrMetallicRoughness":{
				"baseColorFactor":[
					0.9822505712509155,
					0.7454041838645935,
					0.1384316086769104,
					1
				],
				"metallicFactor":0,
				"roughnessFactor":0.4000000059604645
			}
		}
	],
	"meshes":[
		{
			"name":"Curve.014",
			"primitives":[
				{
					"attributes":{
						"POSITION":0,
						"NORMAL":1,
						"TEXCOORD_0":2
					},
					"indices":3,
					"material":0
				}
			]
		},
		{
			"name":"Curve.015",
			"primitives":[
				{
					"attributes":{
						"POSITION":4,
						"NORMAL":5,
						"TEXCOORD_0":6
					},
					"indices":7,
					"material":1
				}
			]
		},
		{
			"name":"Curve.016",
			"primitives":[
				{
					"attributes":{
						"POSITION":8,
						"NORMAL":9,
						"TEXCOORD_0":10
					},
					"indices":11,
					"material":2
				}
			]
		},
		{
			"name":"Curve.017",
			"primitives":[
				{
					"attributes":{
						"POSITION":12,
						"NORMAL":13,
						"TEXCOORD_0":14
					},
					"indices":15,
					"material":3
				}
			]
		}
	],
	"accessors":[
		{
			"bufferView":0,
			"componentType":5126,
			"count":114,
			"max":[
				0.10326286405324936,
				0.009999999776482582,
				0.31867173314094543
			],
			"min":[
				-0.10321909934282303,
				-0.009999999776482582,
				-0.24996417760849
			],
			"type":"VEC3"
		},
		{
			"bufferView":1,
			"componentType":5126,
			"count":114,
			"type":"VEC3"
		},
		{
			"bufferView":2,
			"componentType":5126,
			"count":114,
			"type":"VEC2"
		},
		{
			"bufferView":3,
			"componentType":5123,
			"count":324,
			"type":"SCALAR"
		},
		{
			"bufferView":4,
			"componentType":5126,
			"count":118,
			"max":[
				0.07978621125221252,
				0.009999999776482582,
				0.10173428058624268
			],
			"min":[
				-0.05193425714969635,
				-0.009999999776482582,
				-0.10152024030685425
			],
			"type":"VEC3"
		},
		{
			"bufferView":5,
			"componentType":5126,
			"count":118,
			"type":"VEC3"
		},
		{
			"bufferView":6,
			"componentType":5126,
			"count":118,
			"type":"VEC2"
		},
		{
			"bufferView":7,
			"componentType":5123,
			"count":336,
			"type":"SCALAR"
		},
		{
			"bufferView":8,
			"componentType":5126,
			"count":26,
			"max":[
				0.14468584954738617,
				0.009999999776482582,
				0.155542254447937
			],
			"min":[
				-0.12575511634349823,
				-0.009999999776482582,
				-0.23807483911514282
			],
			"type":"VEC3"
		},
		{
			"bufferView":9,
			"componentType":5126,
			"count":26,
			"type":"VEC3"
		},
		{
			"bufferView":10,
			"componentType":5126,
			"count":26,
			"type":"VEC2"
		},
		{
			"bufferView":11,
			"componentType":5123,
			"count":60,
			"type":"SCALAR"
		},
		{
			"bufferView":12,
			"componentType":5126,
			"count":206,
			"max":[
				0.20619890093803406,
				0.009999999776482582,
				0.1989508420228958
			],
			"min":[
				-0.30708882212638855,
				-0.009999999776482582,
				-0.36180394887924194
			],
			"type":"VEC3"
		},
		{
			"bufferView":13,
			"componentType":5126,
			"count":206,
			"type":"VEC3"
		},
		{
			"bufferView":14,
			"componentType":5126,
			"count":206,
			"type":"VEC2"
		},
		{
			"bufferView":15,
			"componentType":5123,
			"count":600,
			"type":"SCALAR"
		}
	],
	"bufferViews":[
		{
			"buffer":0,
			"byteLength":1368,
			"byteOffset":0,
			"target":34962
		},
		{
			"buffer":0,
			"byteLength":1368,
			"byteOffset":1368,
			"target":34962
		},
		{
			"buffer":0,
			"byteLength":912,
			"byteOffset":2736,
			"target":34962
		},
		{
			"buffer":0,
			"byteLength":648,
			"byteOffset":3648,
			"target":34963
		},
		{
			"buffer":0,
			"byteLength":1416,
			"byteOffset":4296,
			"target":34962
		},
		{
			"buffer":0,
			"byteLength":1416,
			"byteOffset":5712,
			"target":34962
		},
		{
			"buffer":0,
			"byteLength":944,
			"byteOffset":7128,
			"target":34962
		},
		{
			"buffer":0,
			"byteLength":672,
			"byteOffset":8072,
			"target":34963
		},
		{
			"buffer":0,
			"byteLength":312,
			"byteOffset":8744,
			"target":34962
		},
		{
			"buffer":0,
			"byteLength":312,
			"byteOffset":9056,
			"target":34962
		},
		{
			"buffer":0,
			"byteLength":208,
			"byteOffset":9368,
			"target":34962
		},
		{
			"buffer":0,
			"byteLength":120,
			"byteOffset":9576,
			"target":34963
		},
		{
			"buffer":0,
			"byteLength":2472,
			"byteOffset":9696,
			"target":34962
		},
		{
			"buffer":0,
			"byteLength":2472,
			"byteOffset":12168,
			"target":34962
		},
		{
			"buffer":0,
			"byteLength":1648,
			"byteOffset":14640,
			"target":34962
		},
		{
			"buffer":0,
			"byteLength":1200,
			"byteOffset":16288,
			"target":34963
		}
	],
	"buffers":[
		{
			"byteLength":17488,
			"uri":"firebase.bin"
		}
	]
}
