{
	"asset":{
		"generator":"Khronos glTF Blender I/O v4.0.44",
		"version":"2.0"
	},
	"scene":0,
	"scenes":[
		{
			"name":"Scene",
			"nodes":[
				0
			]
		}
	],
	"nodes":[
		{
			"mesh":0,
			"name":"Curve.003",
			"translation":[
				0.026587478816509247,
				0,
				-0.005821332335472107
			]
		}
	],
	"materials":[
		{
			"doubleSided":true,
			"name":"SVGMat.018",
			"pbrMetallicRoughness":{
				"baseColorFactor":[
					0.9822505712509155,
					0.7454041838645935,
					0.1384316086769104,
					1
				],
				"metallicFactor":0,
				"roughnessFactor":0.4000000059604645
			}
		},
		{
			"doubleSided":true,
			"name":"SVGMat.015",
			"pbrMetallicRoughness":{
				"baseColorFactor":[
					1,
					0.5394794940948486,
					0.06847816705703735,
					1
				],
				"metallicFactor":0,
				"roughnessFactor":0.4000000059604645
			}
		},
		{
			"doubleSided":true,
			"name":"SVGMat.016",
			"pbrMetallicRoughness":{
				"baseColorFactor":[
					0.9046611785888672,
					0.5088813304901123,
					0.12213877588510513,
					1
				],
				"metallicFactor":0,
				"roughnessFactor":0.4000000059604645
			}
		},
		{
			"doubleSided":true,
			"name":"SVGMat.017",
			"pbrMetallicRoughness":{
				"baseColorFactor":[
					0.9215818643569946,
					0.22322796285152435,
					0.0036765073891729116,
					1
				],
				"metallicFactor":0,
				"roughnessFactor":0.4000000059604645
			}
		}
	],
	"meshes":[
		{
			"name":"Curve.017",
			"primitives":[
				{
					"attributes":{
						"POSITION":0,
						"NORMAL":1,
						"TEXCOORD_0":2
					},
					"indices":3,
					"material":0
				},
				{
					"attributes":{
						"POSITION":4,
						"NORMAL":5,
						"TEXCOORD_0":6
					},
					"indices":7,
					"material":1
				},
				{
					"attributes":{
						"POSITION":8,
						"NORMAL":9,
						"TEXCOORD_0":10
					},
					"indices":11,
					"material":2
				},
				{
					"attributes":{
						"POSITION":12,
						"NORMAL":13,
						"TEXCOORD_0":14
					},
					"indices":15,
					"material":3
				}
			]
		}
	],
	"accessors":[
		{
			"bufferView":0,
			"componentType":5126,
			"count":206,
			"max":[
				0.2949986457824707,
				0.019999999552965164,
				0.39011019468307495
			],
			"min":[
				-0.2182890772819519,
				-0.019999999552965164,
				-0.1706445813179016
			],
			"type":"VEC3"
		},
		{
			"bufferView":1,
			"componentType":5126,
			"count":206,
			"type":"VEC3"
		},
		{
			"bufferView":2,
			"componentType":5126,
			"count":206,
			"type":"VEC2"
		},
		{
			"bufferView":3,
			"componentType":5123,
			"count":600,
			"type":"SCALAR"
		},
		{
			"bufferView":4,
			"componentType":5126,
			"count":114,
			"max":[
				-0.01180710643529892,
				0.019999999552965164,
				0.2542605996131897
			],
			"min":[
				-0.2182890772819519,
				-0.019999999552965164,
				-0.31437528133392334
			],
			"type":"VEC3"
		},
		{
			"bufferView":5,
			"componentType":5126,
			"count":114,
			"type":"VEC3"
		},
		{
			"bufferView":6,
			"componentType":5126,
			"count":114,
			"type":"VEC2"
		},
		{
			"bufferView":7,
			"componentType":5123,
			"count":324,
			"type":"SCALAR"
		},
		{
			"bufferView":8,
			"componentType":5126,
			"count":118,
			"max":[
				0.11927221715450287,
				0.010644964873790741,
				-0.01221497356891632
			],
			"min":[
				-0.012448243796825409,
				-0.010644964873790741,
				-0.21546947956085205
			],
			"type":"VEC3"
		},
		{
			"bufferView":9,
			"componentType":5126,
			"count":118,
			"type":"VEC3"
		},
		{
			"bufferView":10,
			"componentType":5126,
			"count":118,
			"type":"VEC2"
		},
		{
			"bufferView":11,
			"componentType":5123,
			"count":336,
			"type":"SCALAR"
		},
		{
			"bufferView":12,
			"componentType":5126,
			"count":26,
			"max":[
				0.05215189605951309,
				0.019999999552965164,
				0.2542605996131897
			],
			"min":[
				-0.2182890772819519,
				-0.019999999552965164,
				-0.13935646414756775
			],
			"type":"VEC3"
		},
		{
			"bufferView":13,
			"componentType":5126,
			"count":26,
			"type":"VEC3"
		},
		{
			"bufferView":14,
			"componentType":5126,
			"count":26,
			"type":"VEC2"
		},
		{
			"bufferView":15,
			"componentType":5123,
			"count":60,
			"type":"SCALAR"
		}
	],
	"bufferViews":[
		{
			"buffer":0,
			"byteLength":2472,
			"byteOffset":0,
			"target":34962
		},
		{
			"buffer":0,
			"byteLength":2472,
			"byteOffset":2472,
			"target":34962
		},
		{
			"buffer":0,
			"byteLength":1648,
			"byteOffset":4944,
			"target":34962
		},
		{
			"buffer":0,
			"byteLength":1200,
			"byteOffset":6592,
			"target":34963
		},
		{
			"buffer":0,
			"byteLength":1368,
			"byteOffset":7792,
			"target":34962
		},
		{
			"buffer":0,
			"byteLength":1368,
			"byteOffset":9160,
			"target":34962
		},
		{
			"buffer":0,
			"byteLength":912,
			"byteOffset":10528,
			"target":34962
		},
		{
			"buffer":0,
			"byteLength":648,
			"byteOffset":11440,
			"target":34963
		},
		{
			"buffer":0,
			"byteLength":1416,
			"byteOffset":12088,
			"target":34962
		},
		{
			"buffer":0,
			"byteLength":1416,
			"byteOffset":13504,
			"target":34962
		},
		{
			"buffer":0,
			"byteLength":944,
			"byteOffset":14920,
			"target":34962
		},
		{
			"buffer":0,
			"byteLength":672,
			"byteOffset":15864,
			"target":34963
		},
		{
			"buffer":0,
			"byteLength":312,
			"byteOffset":16536,
			"target":34962
		},
		{
			"buffer":0,
			"byteLength":312,
			"byteOffset":16848,
			"target":34962
		},
		{
			"buffer":0,
			"byteLength":208,
			"byteOffset":17160,
			"target":34962
		},
		{
			"buffer":0,
			"byteLength":120,
			"byteOffset":17368,
			"target":34963
		}
	],
	"buffers":[
		{
			"byteLength":17488,
			"uri":"firebase.bin"
		}
	]
}
