{
	"asset":{
		"generator":"Khronos glTF Blender I/O v4.0.44",
		"version":"2.0"
	},
	"scene":0,
	"scenes":[
		{
			"name":"Scene",
			"nodes":[
				0
			]
		}
	],
	"nodes":[
		{
			"mesh":0,
			"name":"Curve",
			"scale":[
				0.5240396857261658,
				0.5240396857261658,
				0.5240396857261658
			],
			"translation":[
				0.20017121732234955,
				0,
				-0.19747886061668396
			]
		}
	],
	"materials":[
		{
			"doubleSided":true,
			"name":"SVGMat.013",
			"pbrMetallicRoughness":{
				"baseColorFactor":[
					0.7304607629776001,
					0.07227185368537903,
					0.03688944876194,
					1
				],
				"metallicFactor":0,
				"roughnessFactor":0.4000000059604645
			}
		}
	],
	"meshes":[
		{
			"name":"Curve.013",
			"primitives":[
				{
					"attributes":{
						"POSITION":0,
						"NORMAL":1,
						"TEXCOORD_0":2
					},
					"indices":3,
					"material":0
				}
			]
		}
	],
	"accessors":[
		{
			"bufferView":0,
			"componentType":5126,
			"count":1170,
			"max":[
				0.3235914707183838,
				0.009999999776482582,
				0.3768271207809448
			],
			"min":[
				-0.3819772005081177,
				-0.009999999776482582,
				-0.328580766916275
			],
			"type":"VEC3"
		},
		{
			"bufferView":1,
			"componentType":5126,
			"count":1170,
			"type":"VEC3"
		},
		{
			"bufferView":2,
			"componentType":5126,
			"count":1170,
			"type":"VEC2"
		},
		{
			"bufferView":3,
			"componentType":5123,
			"count":3492,
			"type":"SCALAR"
		}
	],
	"bufferViews":[
		{
			"buffer":0,
			"byteLength":14040,
			"byteOffset":0,
			"target":34962
		},
		{
			"buffer":0,
			"byteLength":14040,
			"byteOffset":14040,
			"target":34962
		},
		{
			"buffer":0,
			"byteLength":9360,
			"byteOffset":28080,
			"target":34962
		},
		{
			"buffer":0,
			"byteLength":6984,
			"byteOffset":37440,
			"target":34963
		}
	],
	"buffers":[
		{
			"byteLength":44424,
			"uri":"git.bin"
		}
	]
}
