{
	"asset":{
		"generator":"Khronos glTF Blender I/O v4.0.44",
		"version":"2.0"
	},
	"scene":0,
	"scenes":[
		{
			"name":"Scene",
			"nodes":[
				0
			]
		}
	],
	"nodes":[
		{
			"mesh":0,
			"name":"Curve",
			"scale":[
				0.3023086488246918,
				0.6046172976493835,
				0.3023086488246918
			]
		}
	],
	"materials":[
		{
			"doubleSided":true,
			"name":"SVGMat.013",
			"pbrMetallicRoughness":{
				"baseColorFactor":[
					0.7304607629776001,
					0.07227185368537903,
					0.03688944876194,
					1
				],
				"metallicFactor":0,
				"roughnessFactor":0.4000000059604645
			}
		}
	],
	"meshes":[
		{
			"name":"Curve.013",
			"primitives":[
				{
					"attributes":{
						"POSITION":0,
						"NORMAL":1,
						"TEXCOORD_0":2
					},
					"indices":3,
					"material":0
				}
			]
		}
	],
	"accessors":[
		{
			"bufferView":0,
			"componentType":5126,
			"count":1171,
			"max":[
				0.3284929096698761,
				0.009999999776482582,
				0.3595321774482727
			],
			"min":[
				-0.37707576155662537,
				-0.009999999776482582,
				-0.34587571024894714
			],
			"type":"VEC3"
		},
		{
			"bufferView":1,
			"componentType":5126,
			"count":1171,
			"type":"VEC3"
		},
		{
			"bufferView":2,
			"componentType":5126,
			"count":1171,
			"type":"VEC2"
		},
		{
			"bufferView":3,
			"componentType":5123,
			"count":3492,
			"type":"SCALAR"
		}
	],
	"bufferViews":[
		{
			"buffer":0,
			"byteLength":14052,
			"byteOffset":0,
			"target":34962
		},
		{
			"buffer":0,
			"byteLength":14052,
			"byteOffset":14052,
			"target":34962
		},
		{
			"buffer":0,
			"byteLength":9368,
			"byteOffset":28104,
			"target":34962
		},
		{
			"buffer":0,
			"byteLength":6984,
			"byteOffset":37472,
			"target":34963
		}
	],
	"buffers":[
		{
			"byteLength":44456,
			"uri":"git.bin"
		}
	]
}
