{
	"asset":{
		"generator":"Khronos glTF Blender I/O v4.0.44",
		"version":"2.0"
	},
	"scene":0,
	"scenes":[
		{
			"name":"Scene",
			"nodes":[
				0,
				1,
				2
			]
		}
	],
	"nodes":[
		{
			"mesh":0,
			"name":"Curve",
			"translation":[
				0.30792468786239624,
				0,
				-0.3088799715042114
			]
		},
		{
			"mesh":1,
			"name":"Curve.001",
			"translation":[
				0.42592400312423706,
				0.009999999776482582,
				-0.36567994952201843
			]
		},
		{
			"mesh":2,
			"name":"Curve.002",
			"translation":[
				0.29439014196395874,
				0.019999999552965164,
				-0.3386230170726776
			]
		}
	],
	"materials":[
		{
			"doubleSided":true,
			"name":"SVGMat.032",
			"pbrMetallicRoughness":{
				"baseColorFactor":[
					0.7681511640548706,
					0.07818742096424103,
					0.019382361322641373,
					1
				],
				"metallicFactor":0,
				"roughnessFactor":0.4000000059604645
			}
		},
		{
			"doubleSided":true,
			"name":"SVGMat.033",
			"pbrMetallicRoughness":{
				"baseColorFactor":[
					0.8631572127342224,
					0.13013647496700287,
					0.023153366521000862,
					1
				],
				"metallicFactor":0,
				"roughnessFactor":0.4000000059604645
			}
		},
		{
			"doubleSided":true,
			"name":"SVGMat.034",
			"pbrMetallicRoughness":{
				"baseColorFactor":[
					1,
					1,
					1,
					1
				],
				"metallicFactor":0,
				"roughnessFactor":0.4000000059604645
			}
		}
	],
	"meshes":[
		{
			"name":"Curve.030",
			"primitives":[
				{
					"attributes":{
						"POSITION":0,
						"NORMAL":1,
						"TEXCOORD_0":2
					},
					"indices":3,
					"material":0
				}
			]
		},
		{
			"name":"Curve.031",
			"primitives":[
				{
					"attributes":{
						"POSITION":4,
						"NORMAL":5,
						"TEXCOORD_0":6
					},
					"indices":7,
					"material":1
				}
			]
		},
		{
			"name":"Curve.032",
			"primitives":[
				{
					"attributes":{
						"POSITION":8,
						"NORMAL":9,
						"TEXCOORD_0":10
					},
					"indices":11,
					"material":2
				}
			]
		}
	],
	"accessors":[
		{
			"bufferView":0,
			"componentType":5126,
			"count":22,
			"max":[
				0.30817902088165283,
				0.009999999776482582,
				0.3100582957267761
			],
			"min":[
				-0.30792468786239624,
				-0.009999999776482582,
				-0.39300602674484253
			],
			"type":"VEC3"
		},
		{
			"bufferView":1,
			"componentType":5126,
			"count":22,
			"type":"VEC3"
		},
		{
			"bufferView":2,
			"componentType":5126,
			"count":22,
			"type":"VEC2"
		},
		{
			"bufferView":3,
			"componentType":5123,
			"count":48,
			"type":"SCALAR"
		},
		{
			"bufferView":4,
			"componentType":5126,
			"count":18,
			"max":[
				0.13816863298416138,
				0.009999999776482582,
				0.30598118901252747
			],
			"min":[
				-0.11554685235023499,
				-0.009999999776482582,
				-0.2761734426021576
			],
			"type":"VEC3"
		},
		{
			"bufferView":5,
			"componentType":5126,
			"count":18,
			"type":"VEC3"
		},
		{
			"bufferView":6,
			"componentType":5126,
			"count":18,
			"type":"VEC2"
		},
		{
			"bufferView":7,
			"componentType":5123,
			"count":36,
			"type":"SCALAR"
		},
		{
			"bufferView":8,
			"componentType":5126,
			"count":66,
			"max":[
				0.20711827278137207,
				0.009999999776482582,
				0.20662686228752136
			],
			"min":[
				-0.18317845463752747,
				-0.009999999776482582,
				-0.23474302887916565
			],
			"type":"VEC3"
		},
		{
			"bufferView":9,
			"componentType":5126,
			"count":66,
			"type":"VEC3"
		},
		{
			"bufferView":10,
			"componentType":5126,
			"count":66,
			"type":"VEC2"
		},
		{
			"bufferView":11,
			"componentType":5123,
			"count":180,
			"type":"SCALAR"
		}
	],
	"bufferViews":[
		{
			"buffer":0,
			"byteLength":264,
			"byteOffset":0,
			"target":34962
		},
		{
			"buffer":0,
			"byteLength":264,
			"byteOffset":264,
			"target":34962
		},
		{
			"buffer":0,
			"byteLength":176,
			"byteOffset":528,
			"target":34962
		},
		{
			"buffer":0,
			"byteLength":96,
			"byteOffset":704,
			"target":34963
		},
		{
			"buffer":0,
			"byteLength":216,
			"byteOffset":800,
			"target":34962
		},
		{
			"buffer":0,
			"byteLength":216,
			"byteOffset":1016,
			"target":34962
		},
		{
			"buffer":0,
			"byteLength":144,
			"byteOffset":1232,
			"target":34962
		},
		{
			"buffer":0,
			"byteLength":72,
			"byteOffset":1376,
			"target":34963
		},
		{
			"buffer":0,
			"byteLength":792,
			"byteOffset":1448,
			"target":34962
		},
		{
			"buffer":0,
			"byteLength":792,
			"byteOffset":2240,
			"target":34962
		},
		{
			"buffer":0,
			"byteLength":528,
			"byteOffset":3032,
			"target":34962
		},
		{
			"buffer":0,
			"byteLength":360,
			"byteOffset":3560,
			"target":34963
		}
	],
	"buffers":[
		{
			"byteLength":3920,
			"uri":"html.bin"
		}
	]
}
