{
	"asset":{
		"generator":"Khronos glTF Blender I/O v4.0.44",
		"version":"2.0"
	},
	"scene":0,
	"scenes":[
		{
			"name":"Scene",
			"nodes":[
				0,
				1,
				2
			]
		}
	],
	"nodes":[
		{
			"mesh":0,
			"name":"Curve",
			"scale":[
				0.6888959407806396,
				0.6888959407806396,
				0.6888959407806396
			],
			"translation":[
				0.21212807297706604,
				0.003111040685325861,
				-0.21278615295886993
			]
		},
		{
			"mesh":1,
			"name":"Curve.001",
			"scale":[
				0.6888959407806396,
				0.6888959407806396,
				0.6888959407806396
			],
			"translation":[
				0.2934173047542572,
				0.009999999776482582,
				-0.25191542506217957
			]
		},
		{
			"mesh":2,
			"name":"Curve.002",
			"scale":[
				0.6888959407806396,
				0.6888959407806396,
				0.6888959407806396
			],
			"translation":[
				0.22702953219413757,
				0.01688895933330059,
				-0.21921701729297638
			]
		}
	],
	"materials":[
		{
			"doubleSided":true,
			"name":"SVGMat.021",
			"pbrMetallicRoughness":{
				"baseColorFactor":[
					0.8148465752601624,
					0.5906188488006592,
					0.03189603239297867,
					1
				],
				"metallicFactor":0,
				"roughnessFactor":0.4000000059604645
			}
		},
		{
			"doubleSided":true,
			"name":"SVGMat.022",
			"pbrMetallicRoughness":{
				"baseColorFactor":[
					1,
					0.7304607629776001,
					0.01850022003054619,
					1
				],
				"metallicFactor":0,
				"roughnessFactor":0.4000000059604645
			}
		},
		{
			"doubleSided":true,
			"name":"SVGMat.023",
			"pbrMetallicRoughness":{
				"baseColorFactor":[
					1,
					1,
					1,
					1
				],
				"metallicFactor":0,
				"roughnessFactor":0.4000000059604645
			}
		}
	],
	"meshes":[
		{
			"name":"Curve.020",
			"primitives":[
				{
					"attributes":{
						"POSITION":0,
						"NORMAL":1,
						"TEXCOORD_0":2
					},
					"indices":3,
					"material":0
				}
			]
		},
		{
			"name":"Curve.021",
			"primitives":[
				{
					"attributes":{
						"POSITION":4,
						"NORMAL":5,
						"TEXCOORD_0":6
					},
					"indices":7,
					"material":1
				}
			]
		},
		{
			"name":"Curve.022",
			"primitives":[
				{
					"attributes":{
						"POSITION":8,
						"NORMAL":9,
						"TEXCOORD_0":10
					},
					"indices":11,
					"material":2
				}
			]
		}
	],
	"accessors":[
		{
			"bufferView":0,
			"componentType":5126,
			"count":22,
			"max":[
				0.30817902088165283,
				0.009999999776482582,
				0.3100582957267761
			],
			"min":[
				-0.30792468786239624,
				-0.009999999776482582,
				-0.39300602674484253
			],
			"type":"VEC3"
		},
		{
			"bufferView":1,
			"componentType":5126,
			"count":22,
			"type":"VEC3"
		},
		{
			"bufferView":2,
			"componentType":5126,
			"count":22,
			"type":"VEC2"
		},
		{
			"bufferView":3,
			"componentType":5123,
			"count":48,
			"type":"SCALAR"
		},
		{
			"bufferView":4,
			"componentType":5126,
			"count":18,
			"max":[
				0.13816863298416138,
				0.009999999776482582,
				0.30598118901252747
			],
			"min":[
				-0.11554685235023499,
				-0.009999999776482582,
				-0.2761734426021576
			],
			"type":"VEC3"
		},
		{
			"bufferView":5,
			"componentType":5126,
			"count":18,
			"type":"VEC3"
		},
		{
			"bufferView":6,
			"componentType":5126,
			"count":18,
			"type":"VEC2"
		},
		{
			"bufferView":7,
			"componentType":5123,
			"count":36,
			"type":"SCALAR"
		},
		{
			"bufferView":8,
			"componentType":5126,
			"count":84,
			"max":[
				0.18966084718704224,
				0.009999999776482582,
				0.2248513400554657
			],
			"min":[
				-0.22769977152347565,
				-0.009999999776482582,
				-0.25451526045799255
			],
			"type":"VEC3"
		},
		{
			"bufferView":9,
			"componentType":5126,
			"count":84,
			"type":"VEC3"
		},
		{
			"bufferView":10,
			"componentType":5126,
			"count":84,
			"type":"VEC2"
		},
		{
			"bufferView":11,
			"componentType":5123,
			"count":216,
			"type":"SCALAR"
		}
	],
	"bufferViews":[
		{
			"buffer":0,
			"byteLength":264,
			"byteOffset":0,
			"target":34962
		},
		{
			"buffer":0,
			"byteLength":264,
			"byteOffset":264,
			"target":34962
		},
		{
			"buffer":0,
			"byteLength":176,
			"byteOffset":528,
			"target":34962
		},
		{
			"buffer":0,
			"byteLength":96,
			"byteOffset":704,
			"target":34963
		},
		{
			"buffer":0,
			"byteLength":216,
			"byteOffset":800,
			"target":34962
		},
		{
			"buffer":0,
			"byteLength":216,
			"byteOffset":1016,
			"target":34962
		},
		{
			"buffer":0,
			"byteLength":144,
			"byteOffset":1232,
			"target":34962
		},
		{
			"buffer":0,
			"byteLength":72,
			"byteOffset":1376,
			"target":34963
		},
		{
			"buffer":0,
			"byteLength":1008,
			"byteOffset":1448,
			"target":34962
		},
		{
			"buffer":0,
			"byteLength":1008,
			"byteOffset":2456,
			"target":34962
		},
		{
			"buffer":0,
			"byteLength":672,
			"byteOffset":3464,
			"target":34962
		},
		{
			"buffer":0,
			"byteLength":432,
			"byteOffset":4136,
			"target":34963
		}
	],
	"buffers":[
		{
			"byteLength":4568,
			"uri":"js.bin"
		}
	]
}
