{
	"asset":{
		"generator":"Khronos glTF Blender I/O v4.0.44",
		"version":"2.0"
	},
	"scene":0,
	"scenes":[
		{
			"name":"Scene",
			"nodes":[
				0
			]
		}
	],
	"nodes":[
		{
			"mesh":0,
			"name":"Curve",
			"scale":[
				0.7506851553916931,
				0.32873958349227905,
				0.7506851553916931
			]
		}
	],
	"materials":[
		{
			"doubleSided":true,
			"name":"Material.006",
			"pbrMetallicRoughness":{
				"baseColorFactor":[
					0,
					0,
					0,
					1
				],
				"metallicFactor":0.3700787425041199,
				"roughnessFactor":0.7440944910049438
			}
		}
	],
	"meshes":[
		{
			"name":"Curve.001",
			"primitives":[
				{
					"attributes":{
						"POSITION":0,
						"NORMAL":1,
						"TEXCOORD_0":2
					},
					"indices":3,
					"material":0
				}
			]
		}
	],
	"accessors":[
		{
			"bufferView":0,
			"componentType":5126,
			"count":2077,
			"max":[
				0.06255462765693665,
				0.009999999776482582,
				0.05807894095778465
			],
			"min":[
				-0.06475003808736801,
				-0.009999999776482582,
				-0.0692175030708313
			],
			"type":"VEC3"
		},
		{
			"bufferView":1,
			"componentType":5126,
			"count":2077,
			"type":"VEC3"
		},
		{
			"bufferView":2,
			"componentType":5126,
			"count":2077,
			"type":"VEC2"
		},
		{
			"bufferView":3,
			"componentType":5123,
			"count":5868,
			"type":"SCALAR"
		}
	],
	"bufferViews":[
		{
			"buffer":0,
			"byteLength":24924,
			"byteOffset":0,
			"target":34962
		},
		{
			"buffer":0,
			"byteLength":24924,
			"byteOffset":24924,
			"target":34962
		},
		{
			"buffer":0,
			"byteLength":16616,
			"byteOffset":49848,
			"target":34962
		},
		{
			"buffer":0,
			"byteLength":11736,
			"byteOffset":66464,
			"target":34963
		}
	],
	"buffers":[
		{
			"byteLength":78200,
			"uri":"next.bin"
		}
	]
}
