{
	"asset":{
		"generator":"Khronos glTF Blender I/O v4.0.44",
		"version":"2.0"
	},
	"scene":0,
	"scenes":[
		{
			"name":"Scene",
			"nodes":[
				0
			]
		}
	],
	"nodes":[
		{
			"mesh":0,
			"name":"Curve",
			"translation":[
				0.06486515700817108,
				0,
				-0.05807539075613022
			]
		}
	],
	"materials":[
		{
			"doubleSided":true,
			"name":"SVGMat.011",
			"pbrMetallicRoughness":{
				"baseColorFactor":[
					0,
					0,
					0,
					1
				],
				"metallicFactor":0,
				"roughnessFactor":0.4000000059604645
			}
		}
	],
	"meshes":[
		{
			"name":"Curve.011",
			"primitives":[
				{
					"attributes":{
						"POSITION":0,
						"NORMAL":1,
						"TEXCOORD_0":2
					},
					"indices":3,
					"material":0
				}
			]
		}
	],
	"accessors":[
		{
			"bufferView":0,
			"componentType":5126,
			"count":1960,
			"max":[
				0.06255462765693665,
				0.009999999776482582,
				0.05807894095778465
			],
			"min":[
				-0.06475003808736801,
				-0.009999999776482582,
				-0.0692175030708313
			],
			"type":"VEC3"
		},
		{
			"bufferView":1,
			"componentType":5126,
			"count":1960,
			"type":"VEC3"
		},
		{
			"bufferView":2,
			"componentType":5126,
			"count":1960,
			"type":"VEC2"
		},
		{
			"bufferView":3,
			"componentType":5123,
			"count":5868,
			"type":"SCALAR"
		}
	],
	"bufferViews":[
		{
			"buffer":0,
			"byteLength":23520,
			"byteOffset":0,
			"target":34962
		},
		{
			"buffer":0,
			"byteLength":23520,
			"byteOffset":23520,
			"target":34962
		},
		{
			"buffer":0,
			"byteLength":15680,
			"byteOffset":47040,
			"target":34962
		},
		{
			"buffer":0,
			"byteLength":11736,
			"byteOffset":62720,
			"target":34963
		}
	],
	"buffers":[
		{
			"byteLength":74456,
			"uri":"next.bin"
		}
	]
}
