{
	"asset":{
		"generator":"Khronos glTF Blender I/O v4.0.44",
		"version":"2.0"
	},
	"scene":0,
	"scenes":[
		{
			"name":"Scene",
			"nodes":[
				0
			]
		}
	],
	"nodes":[
		{
			"mesh":0,
			"name":"Curve",
			"scale":[
				0.2378840446472168,
				0.2378840446472168,
				0.2378840446472168
			],
			"translation":[
				0.08463499695062637,
				0,
				-0.016919244080781937
			]
		}
	],
	"materials":[
		{
			"doubleSided":true,
			"name":"SVGMat.046",
			"pbrMetallicRoughness":{
				"baseColorFactor":[
					0,
					0.31854677200317383,
					0,
					1
				],
				"metallicFactor":0,
				"roughnessFactor":0.4000000059604645
			}
		}
	],
	"meshes":[
		{
			"name":"Curve.048",
			"primitives":[
				{
					"attributes":{
						"POSITION":0,
						"NORMAL":1,
						"TEXCOORD_0":2
					},
					"indices":3,
					"material":0
				}
			]
		}
	],
	"accessors":[
		{
			"bufferView":0,
			"componentType":5126,
			"count":2804,
			"max":[
				0.3494008481502533,
				0.009999999776482582,
				0.07024821639060974
			],
			"min":[
				-0.35511741042137146,
				-0.009999999776482582,
				-0.07738330960273743
			],
			"type":"VEC3"
		},
		{
			"bufferView":1,
			"componentType":5126,
			"count":2804,
			"type":"VEC3"
		},
		{
			"bufferView":2,
			"componentType":5126,
			"count":2804,
			"type":"VEC2"
		},
		{
			"bufferView":3,
			"componentType":5123,
			"count":8268,
			"type":"SCALAR"
		}
	],
	"bufferViews":[
		{
			"buffer":0,
			"byteLength":33648,
			"byteOffset":0,
			"target":34962
		},
		{
			"buffer":0,
			"byteLength":33648,
			"byteOffset":33648,
			"target":34962
		},
		{
			"buffer":0,
			"byteLength":22432,
			"byteOffset":67296,
			"target":34962
		},
		{
			"buffer":0,
			"byteLength":16536,
			"byteOffset":89728,
			"target":34963
		}
	],
	"buffers":[
		{
			"byteLength":106264,
			"uri":"nginx.bin"
		}
	]
}
