{
	"asset":{
		"generator":"Khronos glTF Blender I/O v4.0.44",
		"version":"2.0"
	},
	"scene":0,
	"scenes":[
		{
			"name":"Scene",
			"nodes":[
				0,
				1
			]
		}
	],
	"nodes":[
		{
			"mesh":0,
			"name":"Curve",
			"scale":[
				0.3430131673812866,
				0.3430131673812866,
				0.3430131673812866
			],
			"translation":[
				0.12100989371538162,
				0.0009140982292592525,
				-0.06365779787302017
			]
		},
		{
			"mesh":1,
			"name":"Curve.001",
			"scale":[
				0.3430131673812866,
				0.3430131673812866,
				0.3430131673812866
			],
			"translation":[
				0.12159965187311172,
				0.009085901081562042,
				-0.06583843380212784
			]
		}
	],
	"materials":[
		{
			"doubleSided":true,
			"name":"SVGMat.040",
			"pbrMetallicRoughness":{
				"baseColorFactor":[
					0.25015828013420105,
					0.2917706370353699,
					0.5149176716804504,
					1
				],
				"metallicFactor":0,
				"roughnessFactor":0.4000000059604645
			}
		},
		{
			"doubleSided":true,
			"name":"SVGMat.041",
			"pbrMetallicRoughness":{
				"baseColorFactor":[
					0.016807375475764275,
					0.01850022003054619,
					0.03071344457566738,
					1
				],
				"metallicFactor":0,
				"roughnessFactor":0.4000000059604645
			}
		}
	],
	"meshes":[
		{
			"name":"Curve.039",
			"primitives":[
				{
					"attributes":{
						"POSITION":0,
						"NORMAL":1,
						"TEXCOORD_0":2
					},
					"indices":3,
					"material":0
				}
			]
		},
		{
			"name":"Curve.040",
			"primitives":[
				{
					"attributes":{
						"POSITION":4,
						"NORMAL":5,
						"TEXCOORD_0":6
					},
					"indices":7,
					"material":1
				}
			]
		}
	],
	"accessors":[
		{
			"bufferView":0,
			"componentType":5126,
			"count":194,
			"max":[
				0.35278499126434326,
				0.009999999776482582,
				0.18360231816768646
			],
			"min":[
				-0.35278499126434326,
				-0.009999999776482582,
				-0.18360234797000885
			],
			"type":"VEC3"
		},
		{
			"bufferView":1,
			"componentType":5126,
			"count":194,
			"type":"VEC3"
		},
		{
			"bufferView":2,
			"componentType":5126,
			"count":194,
			"type":"VEC2"
		},
		{
			"bufferView":3,
			"componentType":5123,
			"count":564,
			"type":"SCALAR"
		},
		{
			"bufferView":4,
			"componentType":5126,
			"count":880,
			"max":[
				0.2544136345386505,
				0.009999999776482582,
				0.11506927013397217
			],
			"min":[
				-0.25543510913848877,
				-0.009999999776482582,
				-0.13134309649467468
			],
			"type":"VEC3"
		},
		{
			"bufferView":5,
			"componentType":5126,
			"count":880,
			"type":"VEC3"
		},
		{
			"bufferView":6,
			"componentType":5126,
			"count":880,
			"type":"VEC2"
		},
		{
			"bufferView":7,
			"componentType":5123,
			"count":2556,
			"type":"SCALAR"
		}
	],
	"bufferViews":[
		{
			"buffer":0,
			"byteLength":2328,
			"byteOffset":0,
			"target":34962
		},
		{
			"buffer":0,
			"byteLength":2328,
			"byteOffset":2328,
			"target":34962
		},
		{
			"buffer":0,
			"byteLength":1552,
			"byteOffset":4656,
			"target":34962
		},
		{
			"buffer":0,
			"byteLength":1128,
			"byteOffset":6208,
			"target":34963
		},
		{
			"buffer":0,
			"byteLength":10560,
			"byteOffset":7336,
			"target":34962
		},
		{
			"buffer":0,
			"byteLength":10560,
			"byteOffset":17896,
			"target":34962
		},
		{
			"buffer":0,
			"byteLength":7040,
			"byteOffset":28456,
			"target":34962
		},
		{
			"buffer":0,
			"byteLength":5112,
			"byteOffset":35496,
			"target":34963
		}
	],
	"buffers":[
		{
			"byteLength":40608,
			"uri":"php.bin"
		}
	]
}
