{
	"asset":{
		"generator":"Khronos glTF Blender I/O v4.0.44",
		"version":"2.0"
	},
	"scene":0,
	"scenes":[
		{
			"name":"Scene",
			"nodes":[
				0,
				1
			]
		}
	],
	"nodes":[
		{
			"mesh":0,
			"name":"Curve",
			"scale":[
				0.17014436423778534,
				0.17014436423778534,
				0.17014436423778534
			],
			"translation":[
				0.04399557411670685,
				0,
				-0.08902911096811295
			]
		},
		{
			"mesh":1,
			"name":"Curve.001",
			"scale":[
				0.17014436423778534,
				0.17014436423778534,
				0.17014436423778534
			],
			"translation":[
				0.07536233216524124,
				0,
				-0.029040653258562088
			]
		}
	],
	"materials":[
		{
			"doubleSided":true,
			"name":"Material.003",
			"pbrMetallicRoughness":{
				"baseColorFactor":[
					0.038210429251194,
					0.17788052558898926,
					0.3915441334247589,
					1
				],
				"metallicFactor":0
			}
		},
		{
			"doubleSided":true,
			"name":"Material.004",
			"pbrMetallicRoughness":{
				"baseColorFactor":[
					1,
					0.630729615688324,
					0.05126592516899109,
					1
				],
				"metallicFactor":0
			}
		}
	],
	"meshes":[
		{
			"name":"Curve.046",
			"primitives":[
				{
					"attributes":{
						"POSITION":0,
						"NORMAL":1,
						"TEXCOORD_0":2
					},
					"indices":3,
					"material":0
				}
			]
		},
		{
			"name":"Curve.047",
			"primitives":[
				{
					"attributes":{
						"POSITION":4,
						"NORMAL":5,
						"TEXCOORD_0":6
					},
					"indices":7,
					"material":1
				}
			]
		}
	],
	"accessors":[
		{
			"bufferView":0,
			"componentType":5126,
			"count":1091,
			"max":[
				0.26371580362319946,
				0.009999999776482582,
				0.34381741285324097
			],
			"min":[
				-0.2581450939178467,
				-0.009999999776482582,
				-0.17914462089538574
			],
			"type":"VEC3"
		},
		{
			"bufferView":1,
			"componentType":5126,
			"count":1091,
			"type":"VEC3"
		},
		{
			"bufferView":2,
			"componentType":5126,
			"count":1091,
			"type":"VEC2"
		},
		{
			"bufferView":3,
			"componentType":5123,
			"count":3216,
			"type":"SCALAR"
		},
		{
			"bufferView":4,
			"componentType":5126,
			"count":1076,
			"max":[
				0.26130154728889465,
				0.009999999776482582,
				0.16827434301376343
			],
			"min":[
				-0.26055917143821716,
				-0.009999999776482582,
				-0.35468751192092896
			],
			"type":"VEC3"
		},
		{
			"bufferView":5,
			"componentType":5126,
			"count":1076,
			"type":"VEC3"
		},
		{
			"bufferView":6,
			"componentType":5126,
			"count":1076,
			"type":"VEC2"
		},
		{
			"bufferView":7,
			"componentType":5123,
			"count":3216,
			"type":"SCALAR"
		}
	],
	"bufferViews":[
		{
			"buffer":0,
			"byteLength":13092,
			"byteOffset":0,
			"target":34962
		},
		{
			"buffer":0,
			"byteLength":13092,
			"byteOffset":13092,
			"target":34962
		},
		{
			"buffer":0,
			"byteLength":8728,
			"byteOffset":26184,
			"target":34962
		},
		{
			"buffer":0,
			"byteLength":6432,
			"byteOffset":34912,
			"target":34963
		},
		{
			"buffer":0,
			"byteLength":12912,
			"byteOffset":41344,
			"target":34962
		},
		{
			"buffer":0,
			"byteLength":12912,
			"byteOffset":54256,
			"target":34962
		},
		{
			"buffer":0,
			"byteLength":8608,
			"byteOffset":67168,
			"target":34962
		},
		{
			"buffer":0,
			"byteLength":6432,
			"byteOffset":75776,
			"target":34963
		}
	],
	"buffers":[
		{
			"byteLength":82208,
			"uri":"python.bin"
		}
	]
}
