{
	"asset":{
		"generator":"Khronos glTF Blender I/O v4.0.44",
		"version":"2.0"
	},
	"scene":0,
	"scenes":[
		{
			"name":"Scene",
			"nodes":[
				0,
				1
			]
		}
	],
	"nodes":[
		{
			"mesh":0,
			"name":"Curve",
			"translation":[
				0.4817516505718231,
				0,
				-0.23190481960773468
			]
		},
		{
			"mesh":1,
			"name":"Curve.001",
			"translation":[
				0.48164933919906616,
				0,
				-0.22055022418498993
			]
		}
	],
	"materials":[
		{
			"doubleSided":true,
			"name":"SVGMat.007",
			"pbrMetallicRoughness":{
				"baseColorFactor":[
					0.11953842639923096,
					0.7011018991470337,
					0.9646862745285034,
					1
				],
				"metallicFactor":0,
				"roughnessFactor":0.4000000059604645
			}
		}
	],
	"meshes":[
		{
			"name":"Curve.005",
			"primitives":[
				{
					"attributes":{
						"POSITION":0,
						"NORMAL":1,
						"TEXCOORD_0":2
					},
					"indices":3,
					"material":0
				}
			]
		},
		{
			"name":"Curve.006",
			"primitives":[
				{
					"attributes":{
						"POSITION":4,
						"NORMAL":5,
						"TEXCOORD_0":6
					},
					"indices":7,
					"material":0
				}
			]
		}
	],
	"accessors":[
		{
			"bufferView":0,
			"componentType":5126,
			"count":4489,
			"max":[
				0.3096279203891754,
				0.009999999776482582,
				0.2869488000869751
			],
			"min":[
				-0.3095802664756775,
				-0.009999999776482582,
				-0.2643657922744751
			],
			"type":"VEC3"
		},
		{
			"bufferView":1,
			"componentType":5126,
			"count":4489,
			"type":"VEC3"
		},
		{
			"bufferView":2,
			"componentType":5126,
			"count":4489,
			"type":"VEC2"
		},
		{
			"bufferView":3,
			"componentType":5123,
			"count":13524,
			"type":"SCALAR"
		},
		{
			"bufferView":4,
			"componentType":5126,
			"count":194,
			"max":[
				0.057679951190948486,
				0.009999999776482582,
				0.05766783654689789
			],
			"min":[
				-0.05768007040023804,
				-0.009999999776482582,
				-0.05766783654689789
			],
			"type":"VEC3"
		},
		{
			"bufferView":5,
			"componentType":5126,
			"count":194,
			"type":"VEC3"
		},
		{
			"bufferView":6,
			"componentType":5126,
			"count":194,
			"type":"VEC2"
		},
		{
			"bufferView":7,
			"componentType":5123,
			"count":564,
			"type":"SCALAR"
		}
	],
	"bufferViews":[
		{
			"buffer":0,
			"byteLength":53868,
			"byteOffset":0,
			"target":34962
		},
		{
			"buffer":0,
			"byteLength":53868,
			"byteOffset":53868,
			"target":34962
		},
		{
			"buffer":0,
			"byteLength":35912,
			"byteOffset":107736,
			"target":34962
		},
		{
			"buffer":0,
			"byteLength":27048,
			"byteOffset":143648,
			"target":34963
		},
		{
			"buffer":0,
			"byteLength":2328,
			"byteOffset":170696,
			"target":34962
		},
		{
			"buffer":0,
			"byteLength":2328,
			"byteOffset":173024,
			"target":34962
		},
		{
			"buffer":0,
			"byteLength":1552,
			"byteOffset":175352,
			"target":34962
		},
		{
			"buffer":0,
			"byteLength":1128,
			"byteOffset":176904,
			"target":34963
		}
	],
	"buffers":[
		{
			"byteLength":178032,
			"uri":"react.bin"
		}
	]
}
