{
	"asset":{
		"generator":"Khronos glTF Blender I/O v4.0.44",
		"version":"2.0"
	},
	"scene":0,
	"scenes":[
		{
			"name":"Scene",
			"nodes":[
				0
			]
		}
	],
	"nodes":[
		{
			"mesh":0,
			"name":"Curve",
			"scale":[
				0.342509388923645,
				0.342509388923645,
				0.342509388923645
			],
			"translation":[
				0.11526642739772797,
				0,
				-0.09335872530937195
			]
		}
	],
	"materials":[
		{
			"doubleSided":true,
			"name":"SVGMat.038",
			"pbrMetallicRoughness":{
				"baseColorFactor":[
					0.18116424977779388,
					0.06847816705703735,
					0.5028864741325378,
					1
				],
				"metallicFactor":0,
				"roughnessFactor":0.4000000059604645
			}
		}
	],
	"meshes":[
		{
			"name":"Curve.035",
			"primitives":[
				{
					"attributes":{
						"POSITION":0,
						"NORMAL":1,
						"TEXCOORD_0":2
					},
					"indices":3,
					"material":0
				}
			]
		}
	],
	"accessors":[
		{
			"bufferView":0,
			"componentType":5126,
			"count":2327,
			"max":[
				0.36883634328842163,
				0.009999999776482582,
				0.26993733644485474
			],
			"min":[
				-0.3364662230014801,
				-0.009999999776482582,
				-0.39975517988204956
			],
			"type":"VEC3"
		},
		{
			"bufferView":1,
			"componentType":5126,
			"count":2327,
			"type":"VEC3"
		},
		{
			"bufferView":2,
			"componentType":5126,
			"count":2327,
			"type":"VEC2"
		},
		{
			"bufferView":3,
			"componentType":5123,
			"count":6876,
			"type":"SCALAR"
		}
	],
	"bufferViews":[
		{
			"buffer":0,
			"byteLength":27924,
			"byteOffset":0,
			"target":34962
		},
		{
			"buffer":0,
			"byteLength":27924,
			"byteOffset":27924,
			"target":34962
		},
		{
			"buffer":0,
			"byteLength":18616,
			"byteOffset":55848,
			"target":34962
		},
		{
			"buffer":0,
			"byteLength":13752,
			"byteOffset":74464,
			"target":34963
		}
	],
	"buffers":[
		{
			"byteLength":88216,
			"uri":"redux.bin"
		}
	]
}
