{
	"asset":{
		"generator":"Khronos glTF Blender I/O v4.0.44",
		"version":"2.0"
	},
	"scene":0,
	"scenes":[
		{
			"name":"Scene",
			"nodes":[
				0
			]
		}
	],
	"nodes":[
		{
			"mesh":0,
			"name":"Curve",
			"scale":[
				0.27656126022338867,
				0.27656126022338867,
				0.27656126022338867
			],
			"translation":[
				0.09930236637592316,
				0,
				-0.09734556823968887
			]
		}
	],
	"materials":[
		{
			"doubleSided":true,
			"name":"SVGMat.042",
			"pbrMetallicRoughness":{
				"baseColorFactor":[
					0,
					0,
					0,
					1
				],
				"metallicFactor":0,
				"roughnessFactor":0.4000000059604645
			}
		}
	],
	"meshes":[
		{
			"name":"Curve.041",
			"primitives":[
				{
					"attributes":{
						"POSITION":0,
						"NORMAL":1,
						"TEXCOORD_0":2
					},
					"indices":3,
					"material":0
				}
			]
		}
	],
	"accessors":[
		{
			"bufferView":0,
			"componentType":5126,
			"count":13899,
			"max":[
				0.3465089797973633,
				0.009999999776482582,
				0.3519965708255768
			],
			"min":[
				-0.35906100273132324,
				-0.009999999776482582,
				-0.3534378707408905
			],
			"type":"VEC3"
		},
		{
			"bufferView":1,
			"componentType":5126,
			"count":13899,
			"type":"VEC3"
		},
		{
			"bufferView":2,
			"componentType":5126,
			"count":13899,
			"type":"VEC2"
		},
		{
			"bufferView":3,
			"componentType":5123,
			"count":41688,
			"type":"SCALAR"
		}
	],
	"bufferViews":[
		{
			"buffer":0,
			"byteLength":166788,
			"byteOffset":0,
			"target":34962
		},
		{
			"buffer":0,
			"byteLength":166788,
			"byteOffset":166788,
			"target":34962
		},
		{
			"buffer":0,
			"byteLength":111192,
			"byteOffset":333576,
			"target":34962
		},
		{
			"buffer":0,
			"byteLength":83376,
			"byteOffset":444768,
			"target":34963
		}
	],
	"buffers":[
		{
			"byteLength":528144,
			"uri":"rust.bin"
		}
	]
}
