{
	"asset":{
		"generator":"Khronos glTF Blender I/O v4.0.44",
		"version":"2.0"
	},
	"scene":0,
	"scenes":[
		{
			"name":"Scene",
			"nodes":[
				0,
				1
			]
		}
	],
	"nodes":[
		{
			"mesh":0,
			"name":"Curve",
			"scale":[
				0.7866197824478149,
				0.7866197824478149,
				0.7866197824478149
			],
			"translation":[
				0.22705484926700592,
				0.0010669012553989887,
				-0.2726280093193054
			]
		},
		{
			"mesh":1,
			"name":"Curve.001",
			"scale":[
				0.7866197824478149,
				0.7866197824478149,
				0.7866197824478149
			],
			"translation":[
				0.21845842897891998,
				0.00893309898674488,
				-0.2622050940990448
			]
		}
	],
	"materials":[
		{
			"doubleSided":true,
			"name":"SVGMat.025",
			"pbrMetallicRoughness":{
				"baseColorFactor":[
					1,
					0.04817182570695877,
					0,
					1
				],
				"metallicFactor":0,
				"roughnessFactor":0.4000000059604645
			}
		},
		{
			"doubleSided":true,
			"name":"SVGMat.026",
			"pbrMetallicRoughness":{
				"baseColorFactor":[
					1,
					1,
					1,
					1
				],
				"metallicFactor":0,
				"roughnessFactor":0.4000000059604645
			}
		}
	],
	"meshes":[
		{
			"name":"Curve.023",
			"primitives":[
				{
					"attributes":{
						"POSITION":0,
						"NORMAL":1,
						"TEXCOORD_0":2
					},
					"indices":3,
					"material":0
				}
			]
		},
		{
			"name":"Curve.024",
			"primitives":[
				{
					"attributes":{
						"POSITION":4,
						"NORMAL":5,
						"TEXCOORD_0":6
					},
					"indices":7,
					"material":1
				}
			]
		}
	],
	"accessors":[
		{
			"bufferView":0,
			"componentType":5126,
			"count":1730,
			"max":[
				0.2543810307979584,
				0.009999999776482582,
				0.3321622908115387
			],
			"min":[
				-0.28218260407447815,
				-0.009999999776482582,
				-0.3119378685951233
			],
			"type":"VEC3"
		},
		{
			"bufferView":1,
			"componentType":5126,
			"count":1730,
			"type":"VEC3"
		},
		{
			"bufferView":2,
			"componentType":5126,
			"count":1730,
			"type":"VEC2"
		},
		{
			"bufferView":3,
			"componentType":5123,
			"count":5172,
			"type":"SCALAR"
		},
		{
			"bufferView":4,
			"componentType":5126,
			"count":6322,
			"max":[
				0.1898602694272995,
				0.009999999776482582,
				0.2458922564983368
			],
			"min":[
				-0.19580824673175812,
				-0.009999999776482582,
				-0.25188758969306946
			],
			"type":"VEC3"
		},
		{
			"bufferView":5,
			"componentType":5126,
			"count":6322,
			"type":"VEC3"
		},
		{
			"bufferView":6,
			"componentType":5126,
			"count":6322,
			"type":"VEC2"
		},
		{
			"bufferView":7,
			"componentType":5123,
			"count":18900,
			"type":"SCALAR"
		}
	],
	"bufferViews":[
		{
			"buffer":0,
			"byteLength":20760,
			"byteOffset":0,
			"target":34962
		},
		{
			"buffer":0,
			"byteLength":20760,
			"byteOffset":20760,
			"target":34962
		},
		{
			"buffer":0,
			"byteLength":13840,
			"byteOffset":41520,
			"target":34962
		},
		{
			"buffer":0,
			"byteLength":10344,
			"byteOffset":55360,
			"target":34963
		},
		{
			"buffer":0,
			"byteLength":75864,
			"byteOffset":65704,
			"target":34962
		},
		{
			"buffer":0,
			"byteLength":75864,
			"byteOffset":141568,
			"target":34962
		},
		{
			"buffer":0,
			"byteLength":50576,
			"byteOffset":217432,
			"target":34962
		},
		{
			"buffer":0,
			"byteLength":37800,
			"byteOffset":268008,
			"target":34963
		}
	],
	"buffers":[
		{
			"byteLength":305808,
			"uri":"svelte.bin"
		}
	]
}
