{
	"asset":{
		"generator":"Khronos glTF Blender I/O v4.0.44",
		"version":"2.0"
	},
	"scene":0,
	"scenes":[
		{
			"name":"Scene",
			"nodes":[
				0,
				1
			]
		}
	],
	"nodes":[
		{
			"mesh":0,
			"name":"Curve",
			"scale":[
				0.7332850694656372,
				1.4665701389312744,
				0.7332850694656372
			],
			"translation":[
				0.003950536251068115,
				1.749885268509388e-05,
				-0.004923701286315918
			]
		},
		{
			"mesh":1,
			"name":"Curve.001",
			"scale":[
				0.7332850694656372,
				2.199855327606201,
				0.7332850694656372
			],
			"translation":[
				-0.003950536251068115,
				-1.7498736269772053e-05,
				0.004923701286315918
			]
		}
	],
	"materials":[
		{
			"doubleSided":true,
			"name":"SVGMat.025",
			"pbrMetallicRoughness":{
				"baseColorFactor":[
					1,
					0.04817182570695877,
					0,
					1
				],
				"metallicFactor":0,
				"roughnessFactor":0.4000000059604645
			}
		},
		{
			"doubleSided":true,
			"name":"SVGMat.026",
			"pbrMetallicRoughness":{
				"metallicFactor":0,
				"roughnessFactor":0.4000000059604645
			}
		}
	],
	"meshes":[
		{
			"name":"Curve.023",
			"primitives":[
				{
					"attributes":{
						"POSITION":0,
						"NORMAL":1,
						"TEXCOORD_0":2
					},
					"indices":3,
					"material":0
				}
			]
		},
		{
			"name":"Curve.024",
			"primitives":[
				{
					"attributes":{
						"POSITION":4,
						"NORMAL":5,
						"TEXCOORD_0":6
					},
					"indices":7,
					"material":1
				}
			]
		}
	],
	"accessors":[
		{
			"bufferView":0,
			"componentType":5126,
			"count":1732,
			"max":[
				0.2543810307979584,
				0.009999999776482582,
				0.3321622908115387
			],
			"min":[
				-0.28218260407447815,
				-0.009999999776482582,
				-0.3119378685951233
			],
			"type":"VEC3"
		},
		{
			"bufferView":1,
			"componentType":5126,
			"count":1732,
			"type":"VEC3"
		},
		{
			"bufferView":2,
			"componentType":5126,
			"count":1732,
			"type":"VEC2"
		},
		{
			"bufferView":3,
			"componentType":5123,
			"count":5172,
			"type":"SCALAR"
		},
		{
			"bufferView":4,
			"componentType":5126,
			"count":6358,
			"max":[
				0.1898602694272995,
				0.009999999776482582,
				0.2458922564983368
			],
			"min":[
				-0.19580824673175812,
				-0.009999999776482582,
				-0.25188758969306946
			],
			"type":"VEC3"
		},
		{
			"bufferView":5,
			"componentType":5126,
			"count":6358,
			"type":"VEC3"
		},
		{
			"bufferView":6,
			"componentType":5126,
			"count":6358,
			"type":"VEC2"
		},
		{
			"bufferView":7,
			"componentType":5123,
			"count":18900,
			"type":"SCALAR"
		}
	],
	"bufferViews":[
		{
			"buffer":0,
			"byteLength":20784,
			"byteOffset":0,
			"target":34962
		},
		{
			"buffer":0,
			"byteLength":20784,
			"byteOffset":20784,
			"target":34962
		},
		{
			"buffer":0,
			"byteLength":13856,
			"byteOffset":41568,
			"target":34962
		},
		{
			"buffer":0,
			"byteLength":10344,
			"byteOffset":55424,
			"target":34963
		},
		{
			"buffer":0,
			"byteLength":76296,
			"byteOffset":65768,
			"target":34962
		},
		{
			"buffer":0,
			"byteLength":76296,
			"byteOffset":142064,
			"target":34962
		},
		{
			"buffer":0,
			"byteLength":50864,
			"byteOffset":218360,
			"target":34962
		},
		{
			"buffer":0,
			"byteLength":37800,
			"byteOffset":269224,
			"target":34963
		}
	],
	"buffers":[
		{
			"byteLength":307024,
			"uri":"svelte.bin"
		}
	]
}
