{
	"asset":{
		"generator":"Khronos glTF Blender I/O v4.0.44",
		"version":"2.0"
	},
	"scene":0,
	"scenes":[
		{
			"name":"Scene",
			"nodes":[
				0,
				1,
				2
			]
		}
	],
	"nodes":[
		{
			"mesh":0,
			"name":"Curve",
			"scale":[
				0.6449705362319946,
				1.2899410724639893,
				0.6449705362319946
			],
			"translation":[
				-9.881323057925329e-05,
				0,
				0.00031592653249390423
			]
		},
		{
			"mesh":1,
			"name":"Curve.001",
			"scale":[
				0.6449705362319946,
				1.2899410724639893,
				0.6449705362319946
			],
			"translation":[
				-0.00016731910000089556,
				0,
				0.00036705605452880263
			]
		},
		{
			"mesh":2,
			"name":"Curve.002",
			"scale":[
				0.6449705362319946,
				1.2899410724639893,
				0.6449705362319946
			],
			"translation":[
				0.00026601311401464045,
				0,
				-0.0006829826161265373
			]
		}
	],
	"materials":[
		{
			"doubleSided":true,
			"name":"Material.008",
			"pbrMetallicRoughness":{
				"baseColorFactor":[
					0,
					0,
					0,
					1
				],
				"metallicFactor":0.18897637724876404
			}
		}
	],
	"meshes":[
		{
			"name":"Curve.003",
			"primitives":[
				{
					"attributes":{
						"POSITION":0,
						"NORMAL":1,
						"TEXCOORD_0":2
					},
					"indices":3,
					"material":0
				}
			]
		},
		{
			"name":"Curve.004",
			"primitives":[
				{
					"attributes":{
						"POSITION":4,
						"NORMAL":5,
						"TEXCOORD_0":6
					},
					"indices":3,
					"material":0
				}
			]
		},
		{
			"name":"Curve.005",
			"primitives":[
				{
					"attributes":{
						"POSITION":7,
						"NORMAL":8,
						"TEXCOORD_0":9
					},
					"indices":10,
					"material":0
				}
			]
		}
	],
	"accessors":[
		{
			"bufferView":0,
			"componentType":5126,
			"count":16,
			"max":[
				0.40768635272979736,
				0.010000000707805157,
				0.4032440185546875
			],
			"min":[
				-0.2909867763519287,
				-0.010000000707805157,
				-0.30217695236206055
			],
			"type":"VEC3"
		},
		{
			"bufferView":1,
			"componentType":5126,
			"count":16,
			"type":"VEC3"
		},
		{
			"bufferView":2,
			"componentType":5126,
			"count":16,
			"type":"VEC2"
		},
		{
			"bufferView":3,
			"componentType":5123,
			"count":72,
			"type":"SCALAR"
		},
		{
			"bufferView":4,
			"componentType":5126,
			"count":16,
			"max":[
				0.14540798962116241,
				0.009999999776482582,
				0.1511341780424118
			],
			"min":[
				-0.20373496413230896,
				-0.009999999776482582,
				-0.20168115198612213
			],
			"type":"VEC3"
		},
		{
			"bufferView":5,
			"componentType":5126,
			"count":16,
			"type":"VEC3"
		},
		{
			"bufferView":6,
			"componentType":5126,
			"count":16,
			"type":"VEC2"
		},
		{
			"bufferView":7,
			"componentType":5126,
			"count":64,
			"max":[
				0.2746579051017761,
				0.010000006295740604,
				0.27541452646255493
			],
			"min":[
				-0.24570691585540771,
				-0.010000001639127731,
				-0.25029224157333374
			],
			"type":"VEC3"
		},
		{
			"bufferView":8,
			"componentType":5126,
			"count":64,
			"type":"VEC3"
		},
		{
			"bufferView":9,
			"componentType":5126,
			"count":64,
			"type":"VEC2"
		},
		{
			"bufferView":10,
			"componentType":5123,
			"count":288,
			"type":"SCALAR"
		}
	],
	"bufferViews":[
		{
			"buffer":0,
			"byteLength":192,
			"byteOffset":0,
			"target":34962
		},
		{
			"buffer":0,
			"byteLength":192,
			"byteOffset":192,
			"target":34962
		},
		{
			"buffer":0,
			"byteLength":128,
			"byteOffset":384,
			"target":34962
		},
		{
			"buffer":0,
			"byteLength":144,
			"byteOffset":512,
			"target":34963
		},
		{
			"buffer":0,
			"byteLength":192,
			"byteOffset":656,
			"target":34962
		},
		{
			"buffer":0,
			"byteLength":192,
			"byteOffset":848,
			"target":34962
		},
		{
			"buffer":0,
			"byteLength":128,
			"byteOffset":1040,
			"target":34962
		},
		{
			"buffer":0,
			"byteLength":768,
			"byteOffset":1168,
			"target":34962
		},
		{
			"buffer":0,
			"byteLength":768,
			"byteOffset":1936,
			"target":34962
		},
		{
			"buffer":0,
			"byteLength":512,
			"byteOffset":2704,
			"target":34962
		},
		{
			"buffer":0,
			"byteLength":576,
			"byteOffset":3216,
			"target":34963
		}
	],
	"buffers":[
		{
			"byteLength":3792,
			"uri":"three.bin"
		}
	]
}
