{
	"asset":{
		"generator":"Khronos glTF Blender I/O v4.0.44",
		"version":"2.0"
	},
	"scene":0,
	"scenes":[
		{
			"name":"Scene",
			"nodes":[
				0,
				1,
				2
			]
		}
	],
	"nodes":[
		{
			"mesh":0,
			"name":"Curve",
			"scale":[
				0.2178085893392563,
				0.2178085893392563,
				0.2178085893392563
			],
			"translation":[
				0.08618959039449692,
				0,
				-0.0894278883934021
			]
		},
		{
			"mesh":1,
			"name":"Curve.001",
			"scale":[
				0.2178085893392563,
				0.2178085893392563,
				0.2178085893392563
			],
			"translation":[
				0.08616617321968079,
				0,
				-0.08941082656383514
			]
		},
		{
			"mesh":2,
			"name":"Curve.002",
			"scale":[
				0.2178085893392563,
				0.2178085893392563,
				0.2178085893392563
			],
			"translation":[
				0.08631249517202377,
				0,
				-0.08976542949676514
			]
		}
	],
	"materials":[
		{
			"doubleSided":true,
			"name":"Material.002",
			"pbrMetallicRoughness":{
				"baseColorFactor":[
					0,
					0,
					0,
					1
				],
				"metallicFactor":0
			}
		}
	],
	"meshes":[
		{
			"name":"Curve.036",
			"primitives":[
				{
					"attributes":{
						"POSITION":0,
						"NORMAL":1,
						"TEXCOORD_0":2
					},
					"indices":3,
					"material":0
				}
			]
		},
		{
			"name":"Curve.037",
			"primitives":[
				{
					"attributes":{
						"POSITION":4,
						"NORMAL":5,
						"TEXCOORD_0":6
					},
					"indices":3,
					"material":0
				}
			]
		},
		{
			"name":"Curve.038",
			"primitives":[
				{
					"attributes":{
						"POSITION":7,
						"NORMAL":8,
						"TEXCOORD_0":9
					},
					"indices":10,
					"material":0
				}
			]
		}
	],
	"accessors":[
		{
			"bufferView":0,
			"componentType":5126,
			"count":16,
			"max":[
				0.4076855182647705,
				0.010000000707805157,
				0.4032437205314636
			],
			"min":[
				-0.29098761081695557,
				-0.010000000707805157,
				-0.3021772503852844
			],
			"type":"VEC3"
		},
		{
			"bufferView":1,
			"componentType":5126,
			"count":16,
			"type":"VEC3"
		},
		{
			"bufferView":2,
			"componentType":5126,
			"count":16,
			"type":"VEC2"
		},
		{
			"bufferView":3,
			"componentType":5123,
			"count":72,
			"type":"SCALAR"
		},
		{
			"bufferView":4,
			"componentType":5126,
			"count":16,
			"max":[
				0.14540845155715942,
				0.009999999776482582,
				0.15113484859466553
			],
			"min":[
				-0.20373450219631195,
				-0.009999999776482582,
				-0.2016804814338684
			],
			"type":"VEC3"
		},
		{
			"bufferView":5,
			"componentType":5126,
			"count":16,
			"type":"VEC3"
		},
		{
			"bufferView":6,
			"componentType":5126,
			"count":16,
			"type":"VEC2"
		},
		{
			"bufferView":7,
			"componentType":5126,
			"count":64,
			"max":[
				0.2746584415435791,
				0.010000001639127731,
				0.27541518211364746
			],
			"min":[
				-0.24570637941360474,
				-0.010000001639127731,
				-0.2502915859222412
			],
			"type":"VEC3"
		},
		{
			"bufferView":8,
			"componentType":5126,
			"count":64,
			"type":"VEC3"
		},
		{
			"bufferView":9,
			"componentType":5126,
			"count":64,
			"type":"VEC2"
		},
		{
			"bufferView":10,
			"componentType":5123,
			"count":288,
			"type":"SCALAR"
		}
	],
	"bufferViews":[
		{
			"buffer":0,
			"byteLength":192,
			"byteOffset":0,
			"target":34962
		},
		{
			"buffer":0,
			"byteLength":192,
			"byteOffset":192,
			"target":34962
		},
		{
			"buffer":0,
			"byteLength":128,
			"byteOffset":384,
			"target":34962
		},
		{
			"buffer":0,
			"byteLength":144,
			"byteOffset":512,
			"target":34963
		},
		{
			"buffer":0,
			"byteLength":192,
			"byteOffset":656,
			"target":34962
		},
		{
			"buffer":0,
			"byteLength":192,
			"byteOffset":848,
			"target":34962
		},
		{
			"buffer":0,
			"byteLength":128,
			"byteOffset":1040,
			"target":34962
		},
		{
			"buffer":0,
			"byteLength":768,
			"byteOffset":1168,
			"target":34962
		},
		{
			"buffer":0,
			"byteLength":768,
			"byteOffset":1936,
			"target":34962
		},
		{
			"buffer":0,
			"byteLength":512,
			"byteOffset":2704,
			"target":34962
		},
		{
			"buffer":0,
			"byteLength":576,
			"byteOffset":3216,
			"target":34963
		}
	],
	"buffers":[
		{
			"byteLength":3792,
			"uri":"three.bin"
		}
	]
}
