{
	"asset":{
		"generator":"Khronos glTF Blender I/O v4.0.44",
		"version":"2.0"
	},
	"scene":0,
	"scenes":[
		{
			"name":"Scene",
			"nodes":[
				0,
				1,
				2
			]
		}
	],
	"nodes":[
		{
			"mesh":0,
			"name":"Curve",
			"scale":[
				0.24875789880752563,
				0.7462736964225769,
				0.24875789880752563
			],
			"translation":[
				-0.02116289734840393,
				0,
				-0.013392586261034012
			]
		},
		{
			"mesh":1,
			"name":"Curve.001",
			"scale":[
				0.24875789880752563,
				0.5597052574157715,
				0.24875789880752563
			],
			"translation":[
				0.021076085045933723,
				0.00800000037997961,
				0.013525718823075294
			]
		},
		{
			"mesh":2,
			"name":"Curve.002",
			"rotation":[
				0,
				0,
				1,
				1.6292068494294654e-07
			],
			"scale":[
				0.24875789880752563,
				0.5597052574157715,
				0.24875789880752563
			],
			"translation":[
				-0.028353428468108177,
				-0.00800000037997961,
				0.013669985346496105
			]
		}
	],
	"materials":[
		{
			"doubleSided":true,
			"name":"Material.002",
			"pbrMetallicRoughness":{
				"baseColorFactor":[
					0,
					0.194609135389328,
					0.6037836074829102,
					1
				],
				"metallicFactor":0,
				"roughnessFactor":0.5
			}
		},
		{
			"doubleSided":true,
			"name":"Material.005",
			"pbrMetallicRoughness":{
				"baseColorFactor":[
					1,
					0.9999560713768005,
					0.9999275803565979,
					1
				],
				"metallicFactor":0,
				"roughnessFactor":0.5
			}
		}
	],
	"meshes":[
		{
			"name":"Curve",
			"primitives":[
				{
					"attributes":{
						"POSITION":0,
						"NORMAL":1,
						"TEXCOORD_0":2
					},
					"indices":3,
					"material":0
				}
			]
		},
		{
			"name":"Curve.001",
			"primitives":[
				{
					"attributes":{
						"POSITION":4,
						"NORMAL":5,
						"TEXCOORD_0":6
					},
					"indices":7,
					"material":1
				}
			]
		},
		{
			"name":"Curve.002",
			"primitives":[
				{
					"attributes":{
						"POSITION":8,
						"NORMAL":9,
						"TEXCOORD_0":10
					},
					"indices":7,
					"material":1
				}
			]
		}
	],
	"accessors":[
		{
			"bufferView":0,
			"componentType":5126,
			"count":22,
			"max":[
				0.4233419895172119,
				0.009999999776482582,
				0.352710485458374
			],
			"min":[
				-0.2822279930114746,
				-0.009999999776482582,
				-0.352710485458374
			],
			"type":"VEC3"
		},
		{
			"bufferView":1,
			"componentType":5126,
			"count":22,
			"type":"VEC3"
		},
		{
			"bufferView":2,
			"componentType":5126,
			"count":22,
			"type":"VEC2"
		},
		{
			"bufferView":3,
			"componentType":5123,
			"count":48,
			"type":"SCALAR"
		},
		{
			"bufferView":4,
			"componentType":5126,
			"count":1448,
			"max":[
				0.19540554285049438,
				0.009999999776482582,
				0.18700075149536133
			],
			"min":[
				-0.2976803183555603,
				-0.009999999776482582,
				-0.13936001062393188
			],
			"type":"VEC3"
		},
		{
			"bufferView":5,
			"componentType":5126,
			"count":1448,
			"type":"VEC3"
		},
		{
			"bufferView":6,
			"componentType":5126,
			"count":1448,
			"type":"VEC2"
		},
		{
			"bufferView":7,
			"componentType":5123,
			"count":4296,
			"type":"SCALAR"
		},
		{
			"bufferView":8,
			"componentType":5126,
			"count":1448,
			"max":[
				0.19540554285049438,
				0.009999999776482582,
				0.18700075149536133
			],
			"min":[
				-0.2976803183555603,
				-0.009999999776482582,
				-0.13936001062393188
			],
			"type":"VEC3"
		},
		{
			"bufferView":9,
			"componentType":5126,
			"count":1448,
			"type":"VEC3"
		},
		{
			"bufferView":10,
			"componentType":5126,
			"count":1448,
			"type":"VEC2"
		}
	],
	"bufferViews":[
		{
			"buffer":0,
			"byteLength":264,
			"byteOffset":0,
			"target":34962
		},
		{
			"buffer":0,
			"byteLength":264,
			"byteOffset":264,
			"target":34962
		},
		{
			"buffer":0,
			"byteLength":176,
			"byteOffset":528,
			"target":34962
		},
		{
			"buffer":0,
			"byteLength":96,
			"byteOffset":704,
			"target":34963
		},
		{
			"buffer":0,
			"byteLength":17376,
			"byteOffset":800,
			"target":34962
		},
		{
			"buffer":0,
			"byteLength":17376,
			"byteOffset":18176,
			"target":34962
		},
		{
			"buffer":0,
			"byteLength":11584,
			"byteOffset":35552,
			"target":34962
		},
		{
			"buffer":0,
			"byteLength":8592,
			"byteOffset":47136,
			"target":34963
		},
		{
			"buffer":0,
			"byteLength":17376,
			"byteOffset":55728,
			"target":34962
		},
		{
			"buffer":0,
			"byteLength":17376,
			"byteOffset":73104,
			"target":34962
		},
		{
			"buffer":0,
			"byteLength":11584,
			"byteOffset":90480,
			"target":34962
		}
	],
	"buffers":[
		{
			"byteLength":102064,
			"uri":"ts.bin"
		}
	]
}
